# xmcd CD database file
#
# Track frame offsets:
#	150
#	14120
#	43798
#	66373
#	87000
#	112318
#	134323
#	159908
#	174458
#	182688
#	197828
#
# Disc length: 2795 seconds
#
# Revision: 0
# Processed by: cddbd v1.5PL3 Copyright (c) Steve Scherf et al.
# Submitted via: CDex 1.51
#
DISCID=9a0ae90b
DTITLE=Robson Fernandes - Sampa Blues
DYEAR=1900
DGENRE=Blues
TTITLE0=Sampa's Boogie
TTITLE1=Mr. Sonny Boy
TTITLE2=Slow for Walter
TTITLE3=Blues in the Dark
TTITLE4=Alpha Blues
TTITLE5=364 Boogie
TTITLE6=Memories from Home
TTITLE7=Mojo Instrumental
TTITLE8=Harmonica I
TTITLE9=Samba's Boogie
TTITLE10=Mr. Sonny Boy (acoustic)
EXTD=
EXTT0=
EXTT1=
EXTT2=
EXTT3=
EXTT4=
EXTT5=
EXTT6=
EXTT7=
EXTT8=
EXTT9=
EXTT10=
PLAYORDER=
